<svg width="100" height="100" viewBox="0 0 100 100" fill="none" xmlns="http://www.w3.org/2000/svg">
<mask id="mask0_11_65" style="mask-type:alpha" maskUnits="userSpaceOnUse" x="0" y="0" width="100" height="100">
<rect width="100" height="100" fill="#D9D9D9"/>
</mask>
<g mask="url(#mask0_11_65)">
<path d="M50 89.5832C40.7639 89.5832 32.9 86.3721 26.4083 79.9499C19.9139 73.5249 16.6667 65.7638 16.6667 56.6666C16.6667 52.0832 17.518 47.8291 19.2208 43.9041C20.9208 39.9818 23.3333 36.5277 26.4583 33.5416L50 10.4166L73.5417 33.5416C76.6667 36.5277 79.0805 39.9818 80.7833 43.9041C82.4833 47.8291 83.3333 52.0832 83.3333 56.6666C83.3333 65.7638 80.0875 73.5249 73.5958 79.9499C67.1014 86.3721 59.2361 89.5832 50 89.5832ZM50 22.0832L32.2917 39.5832C30.2083 41.5971 28.5583 43.8193 27.3417 46.2499C26.1278 48.6805 25.3819 51.3541 25.1042 54.2707H74.8958C74.618 51.3541 73.8722 48.6805 72.6583 46.2499C71.4417 43.8193 69.7917 41.5971 67.7083 39.5832L50 22.0832Z" fill="#6DFAA5"/>
</g>
</svg>
