<svg width="100" height="100" viewBox="0 0 100 100" fill="none" xmlns="http://www.w3.org/2000/svg">
<mask id="mask0_10_47" style="mask-type:alpha" maskUnits="userSpaceOnUse" x="0" y="0" width="100" height="100">
<rect width="100" height="100" fill="#D9D9D9"/>
</mask>
<g mask="url(#mask0_10_47)">
<path d="M47.9167 83.3333C44.4444 83.3333 41.4931 82.1181 39.0625 79.6875C36.6319 77.2569 35.4167 74.3056 35.4167 70.8333H43.75C43.75 72.0139 44.15 73.0028 44.95 73.8C45.7472 74.6 46.7361 75 47.9167 75C49.0972 75 50.0875 74.6 50.8875 73.8C51.6847 73.0028 52.0833 72.0139 52.0833 70.8333C52.0833 69.6528 51.6847 68.6639 50.8875 67.8667C50.0875 67.0667 49.0972 66.6667 47.9167 66.6667H8.33333V58.3333H47.9167C51.3889 58.3333 54.3403 59.5486 56.7708 61.9792C59.2014 64.4097 60.4167 67.3611 60.4167 70.8333C60.4167 74.3056 59.2014 77.2569 56.7708 79.6875C54.3403 82.1181 51.3889 83.3333 47.9167 83.3333ZM8.33333 41.6667V33.3333H64.5833C66.3889 33.3333 67.882 32.7431 69.0625 31.5625C70.2431 30.3819 70.8333 28.8889 70.8333 27.0833C70.8333 25.2778 70.2431 23.7847 69.0625 22.6042C67.882 21.4236 66.3889 20.8333 64.5833 20.8333C62.7778 20.8333 61.2847 21.4236 60.1042 22.6042C58.9236 23.7847 58.3333 25.2778 58.3333 27.0833H50C50 22.9861 51.4056 19.5306 54.2167 16.7167C57.0306 13.9056 60.4861 12.5 64.5833 12.5C68.6806 12.5 72.1361 13.9056 74.95 16.7167C77.7611 19.5306 79.1667 22.9861 79.1667 27.0833C79.1667 31.1806 77.7611 34.6347 74.95 37.4458C72.1361 40.2597 68.6806 41.6667 64.5833 41.6667H8.33333ZM77.0833 75V66.6667C78.8889 66.6667 80.382 66.0764 81.5625 64.8958C82.7431 63.7153 83.3333 62.2222 83.3333 60.4167C83.3333 58.6111 82.7431 57.1181 81.5625 55.9375C80.382 54.7569 78.8889 54.1667 77.0833 54.1667H8.33333V45.8333H77.0833C81.1806 45.8333 84.6361 47.2389 87.45 50.05C90.2611 52.8639 91.6667 56.3194 91.6667 60.4167C91.6667 64.5139 90.2611 67.9695 87.45 70.7833C84.6361 73.5945 81.1806 75 77.0833 75Z" fill="#6DFAA5"/>
</g>
</svg>
