<svg width="46" height="46" viewBox="0 0 46 46" fill="none" xmlns="http://www.w3.org/2000/svg">
<path d="M23 8.41667C22.4097 8.41667 21.9153 8.21666 21.5167 7.81666C21.1167 7.41805 20.9167 6.92361 20.9167 6.33333V2.16667C20.9167 1.57639 21.1167 1.08125 21.5167 0.681249C21.9153 0.282637 22.4097 0.0833321 23 0.0833321C23.5903 0.0833321 24.0854 0.282637 24.4854 0.681249C24.884 1.08125 25.0833 1.57639 25.0833 2.16667V6.33333C25.0833 6.92361 24.884 7.41805 24.4854 7.81666C24.0854 8.21666 23.5903 8.41667 23 8.41667ZM33.3125 12.6875C32.9306 12.3056 32.7396 11.8278 32.7396 11.2542C32.7396 10.6819 32.9306 10.1875 33.3125 9.77083L36.2292 6.80208C36.6458 6.38541 37.1403 6.17708 37.7125 6.17708C38.2861 6.17708 38.7813 6.38541 39.1979 6.80208C39.5799 7.18403 39.7708 7.67014 39.7708 8.26042C39.7708 8.85069 39.5799 9.3368 39.1979 9.71875L36.2292 12.6875C35.8472 13.0694 35.3611 13.2604 34.7708 13.2604C34.1806 13.2604 33.6945 13.0694 33.3125 12.6875ZM39.6667 25.0833C39.0764 25.0833 38.582 24.8833 38.1833 24.4833C37.7833 24.0847 37.5833 23.5903 37.5833 23C37.5833 22.4097 37.7833 21.9146 38.1833 21.5146C38.582 21.116 39.0764 20.9167 39.6667 20.9167H43.8333C44.4236 20.9167 44.9181 21.116 45.3167 21.5146C45.7167 21.9146 45.9167 22.4097 45.9167 23C45.9167 23.5903 45.7167 24.0847 45.3167 24.4833C44.9181 24.8833 44.4236 25.0833 43.8333 25.0833H39.6667ZM23 45.9167C22.4097 45.9167 21.9153 45.7167 21.5167 45.3167C21.1167 44.9181 20.9167 44.4236 20.9167 43.8333V39.6667C20.9167 39.0764 21.1167 38.5819 21.5167 38.1833C21.9153 37.7833 22.4097 37.5833 23 37.5833C23.5903 37.5833 24.0854 37.7833 24.4854 38.1833C24.884 38.5819 25.0833 39.0764 25.0833 39.6667V43.8333C25.0833 44.4236 24.884 44.9181 24.4854 45.3167C24.0854 45.7167 23.5903 45.9167 23 45.9167ZM9.77084 12.6875L6.80209 9.77083C6.38543 9.35417 6.17709 8.85069 6.17709 8.26042C6.17709 7.67014 6.38543 7.18403 6.80209 6.80208C7.18404 6.42014 7.67015 6.22917 8.26043 6.22917C8.8507 6.22917 9.33682 6.42014 9.71876 6.80208L12.6875 9.77083C13.0695 10.1528 13.2604 10.6389 13.2604 11.2292C13.2604 11.8194 13.0695 12.3056 12.6875 12.6875C12.2708 13.0694 11.7847 13.2604 11.2292 13.2604C10.6736 13.2604 10.1875 13.0694 9.77084 12.6875ZM36.2292 39.1979L33.3125 36.2292C32.9306 35.8125 32.7396 35.3181 32.7396 34.7458C32.7396 34.1722 32.9306 33.6944 33.3125 33.3125C33.6945 32.9306 34.1722 32.7396 34.7458 32.7396C35.3181 32.7396 35.8125 32.9306 36.2292 33.3125L39.1979 36.2292C39.6146 36.6111 39.8139 37.0972 39.7958 37.6875C39.7792 38.2778 39.5799 38.7812 39.1979 39.1979C38.7813 39.6146 38.2778 39.8229 37.6875 39.8229C37.0972 39.8229 36.6111 39.6146 36.2292 39.1979ZM2.16668 25.0833C1.5764 25.0833 1.08195 24.8833 0.683343 24.4833C0.283343 24.0847 0.0833435 23.5903 0.0833435 23C0.0833435 22.4097 0.283343 21.9146 0.683343 21.5146C1.08195 21.116 1.5764 20.9167 2.16668 20.9167H6.33334C6.92362 20.9167 7.41876 21.116 7.81876 21.5146C8.21737 21.9146 8.41668 22.4097 8.41668 23C8.41668 23.5903 8.21737 24.0847 7.81876 24.4833C7.41876 24.8833 6.92362 25.0833 6.33334 25.0833H2.16668ZM6.80209 39.1979C6.42015 38.816 6.22918 38.3299 6.22918 37.7396C6.22918 37.1493 6.42015 36.6632 6.80209 36.2812L9.77084 33.3125C10.1528 32.9306 10.6306 32.7396 11.2042 32.7396C11.7764 32.7396 12.2708 32.9306 12.6875 33.3125C13.1042 33.7292 13.3125 34.2243 13.3125 34.7979C13.3125 35.3701 13.1042 35.8646 12.6875 36.2812L9.77084 39.1979C9.35418 39.6146 8.8507 39.8229 8.26043 39.8229C7.67015 39.8229 7.18404 39.6146 6.80209 39.1979ZM23 35.5C19.5278 35.5 16.5764 34.2847 14.1458 31.8542C11.7153 29.4236 10.5 26.4722 10.5 23C10.5 19.5278 11.7153 16.5764 14.1458 14.1458C16.5764 11.7153 19.5278 10.5 23 10.5C26.4722 10.5 29.4236 11.7153 31.8542 14.1458C34.2847 16.5764 35.5 19.5278 35.5 23C35.5 26.4722 34.2847 29.4236 31.8542 31.8542C29.4236 34.2847 26.4722 35.5 23 35.5ZM23 31.3333C25.2917 31.3333 27.2535 30.5174 28.8854 28.8854C30.5174 27.2535 31.3333 25.2917 31.3333 23C31.3333 20.7083 30.5174 18.7465 28.8854 17.1146C27.2535 15.4826 25.2917 14.6667 23 14.6667C20.7083 14.6667 18.7465 15.4826 17.1146 17.1146C15.4826 18.7465 14.6667 20.7083 14.6667 23C14.6667 25.2917 15.4826 27.2535 17.1146 28.8854C18.7465 30.5174 20.7083 31.3333 23 31.3333Z" fill="#6DFAA5"/>
</svg>
