<svg width="100" height="100" viewBox="0 0 100 100" fill="none" xmlns="http://www.w3.org/2000/svg">
<mask id="mask0_7_36" style="mask-type:alpha" maskUnits="userSpaceOnUse" x="0" y="0" width="100" height="100">
<rect width="100" height="100" fill="#D9D9D9"/>
</mask>
<g mask="url(#mask0_7_36)">
<path d="M50 20.8333C48.8194 20.8333 47.8306 20.4333 47.0333 19.6333C46.2333 18.8361 45.8333 17.8472 45.8333 16.6667V8.33332C45.8333 7.15277 46.2333 6.16249 47.0333 5.36249C47.8306 4.56527 48.8194 4.16666 50 4.16666C51.1806 4.16666 52.1708 4.56527 52.9708 5.36249C53.7681 6.16249 54.1667 7.15277 54.1667 8.33332V16.6667C54.1667 17.8472 53.7681 18.8361 52.9708 19.6333C52.1708 20.4333 51.1806 20.8333 50 20.8333ZM70.625 29.375C69.7917 28.5417 69.375 27.5694 69.375 26.4583C69.375 25.3472 69.7917 24.375 70.625 23.5417L76.4583 17.6042C77.2917 16.7708 78.2806 16.3542 79.425 16.3542C80.5722 16.3542 81.5625 16.7708 82.3958 17.6042C83.2292 18.4375 83.6458 19.4097 83.6458 20.5208C83.6458 21.6319 83.2292 22.6042 82.3958 23.4375L76.4583 29.375C75.625 30.2083 74.6528 30.625 73.5417 30.625C72.4306 30.625 71.4583 30.2083 70.625 29.375ZM83.3333 54.1667C82.1528 54.1667 81.1639 53.7667 80.3667 52.9667C79.5667 52.1694 79.1667 51.1805 79.1667 50C79.1667 48.8194 79.5667 47.8292 80.3667 47.0292C81.1639 46.2319 82.1528 45.8333 83.3333 45.8333H91.6667C92.8472 45.8333 93.8361 46.2319 94.6333 47.0292C95.4333 47.8292 95.8333 48.8194 95.8333 50C95.8333 51.1805 95.4333 52.1694 94.6333 52.9667C93.8361 53.7667 92.8472 54.1667 91.6667 54.1667H83.3333ZM76.4583 82.3958L70.625 76.4583C69.7917 75.625 69.375 74.6528 69.375 73.5417C69.375 72.4305 69.7917 71.4583 70.625 70.625C71.4583 69.7917 72.4306 69.375 73.5417 69.375C74.6528 69.375 75.625 69.7917 76.4583 70.625L82.3958 76.4583C83.2292 77.2917 83.6458 78.2806 83.6458 79.425C83.6458 80.5722 83.2292 81.5625 82.3958 82.3958C81.5625 83.2292 80.5722 83.6458 79.425 83.6458C78.2806 83.6458 77.2917 83.2292 76.4583 82.3958ZM23.5417 29.375L17.6042 23.4375C16.7708 22.6042 16.3542 21.6319 16.3542 20.5208C16.3542 19.4097 16.7708 18.4375 17.6042 17.6042C18.4375 16.7708 19.4278 16.3542 20.575 16.3542C21.7194 16.3542 22.7083 16.7708 23.5417 17.6042L29.375 23.5417C30.2083 24.375 30.625 25.3472 30.625 26.4583C30.625 27.5694 30.2083 28.5417 29.375 29.375C28.5417 30.2083 27.5694 30.625 26.4583 30.625C25.3472 30.625 24.375 30.2083 23.5417 29.375ZM25 87.5C19.2361 87.5 14.3236 85.4694 10.2625 81.4083C6.19861 77.3444 4.16667 72.4306 4.16667 66.6667C4.16667 60.9028 6.19861 55.9889 10.2625 51.925C14.3236 47.8639 19.2361 45.8333 25 45.8333C25.0694 45.8333 25.1389 45.8333 25.2083 45.8333C25.2778 45.8333 25.3472 45.8333 25.4167 45.8333C26.3889 39.8611 29.1667 34.8958 33.75 30.9375C38.3333 26.9792 43.75 25 50 25C56.9444 25 62.8472 27.4305 67.7083 32.2917C72.5694 37.1528 75 43.0555 75 50C75 55.4167 73.4542 60.2597 70.3625 64.5292C67.2736 68.8014 63.2639 71.8055 58.3333 73.5417C58.1944 77.4305 56.7194 80.7292 53.9083 83.4375C51.0944 86.1458 47.7083 87.5 43.75 87.5H25ZM25 79.1667H43.75C45.4861 79.1667 46.9611 78.5583 48.175 77.3417C49.3917 76.1278 50 74.6528 50 72.9167C50 71.1806 49.4097 69.7055 48.2292 68.4917C47.0486 67.275 45.5903 66.6667 43.8542 66.6667H38.5417L36.4583 61.6667C35.4861 59.375 33.9583 57.5528 31.875 56.2C29.7917 54.8444 27.5 54.1667 25 54.1667C21.5278 54.1667 18.5764 55.3819 16.1458 57.8125C13.7153 60.243 12.5 63.1944 12.5 66.6667C12.5 70.1389 13.7153 73.0903 16.1458 75.5208C18.5764 77.9514 21.5278 79.1667 25 79.1667ZM56.25 65.4167C59.375 64.1667 61.8917 62.1694 63.8 59.425C65.7111 56.6833 66.6667 53.5417 66.6667 50C66.6667 45.4167 65.0347 41.493 61.7708 38.2292C58.5069 34.9653 54.5833 33.3333 50 33.3333C45.7639 33.3333 42.1014 34.7055 39.0125 37.45C35.9208 40.1917 34.0972 43.6111 33.5417 47.7083C35.9028 48.75 37.9861 50.1736 39.7917 51.9792C41.5972 53.7847 43.0208 55.9028 44.0625 58.3333C46.7014 58.3333 49.0806 58.9931 51.2 60.3125C53.3167 61.6319 55 63.3333 56.25 65.4167Z" fill="#6DFAA5"/>
</g>
</svg>
