<svg width="50" height="50" viewBox="0 0 50 50" fill="none" xmlns="http://www.w3.org/2000/svg">
<mask id="mask0_41_140" style="mask-type:alpha" maskUnits="userSpaceOnUse" x="0" y="0" width="50" height="50">
<rect width="50" height="50" fill="#D9D9D9"/>
</mask>
<g mask="url(#mask0_41_140)">
<path d="M37.5 39.5833C36.9097 39.5833 36.4152 39.3833 36.0166 38.9833C35.6166 38.5847 35.4166 38.0903 35.4166 37.5C35.4166 36.9097 35.6166 36.4153 36.0166 36.0167C36.4152 35.6167 36.9097 35.4167 37.5 35.4167C38.0902 35.4167 38.5847 35.6167 38.9833 36.0167C39.3833 36.4153 39.5833 36.9097 39.5833 37.5C39.5833 38.0903 39.3833 38.5847 38.9833 38.9833C38.5847 39.3833 38.0902 39.5833 37.5 39.5833ZM14.5833 45.8333C13.993 45.8333 13.4979 45.6333 13.0979 45.2333C12.6993 44.8347 12.5 44.3403 12.5 43.75C12.5 43.1597 12.6993 42.6653 13.0979 42.2667C13.4979 41.8667 13.993 41.6667 14.5833 41.6667C15.1736 41.6667 15.6687 41.8667 16.0687 42.2667C16.4673 42.6653 16.6666 43.1597 16.6666 43.75C16.6666 44.3403 16.4673 44.8347 16.0687 45.2333C15.6687 45.6333 15.1736 45.8333 14.5833 45.8333ZM12.5 39.5833C11.9097 39.5833 11.4145 39.3833 11.0145 38.9833C10.6159 38.5847 10.4166 38.0903 10.4166 37.5C10.4166 36.9097 10.6159 36.4153 11.0145 36.0167C11.4145 35.6167 11.9097 35.4167 12.5 35.4167H31.25C31.8402 35.4167 32.3354 35.6167 32.7354 36.0167C33.134 36.4153 33.3333 36.9097 33.3333 37.5C33.3333 38.0903 33.134 38.5847 32.7354 38.9833C32.3354 39.3833 31.8402 39.5833 31.25 39.5833H12.5ZM20.8333 45.8333C20.243 45.8333 19.7486 45.6333 19.35 45.2333C18.95 44.8347 18.75 44.3403 18.75 43.75C18.75 43.1597 18.95 42.6653 19.35 42.2667C19.7486 41.8667 20.243 41.6667 20.8333 41.6667H35.4166C36.0069 41.6667 36.5014 41.8667 36.9 42.2667C37.3 42.6653 37.5 43.1597 37.5 43.75C37.5 44.3403 37.3 44.8347 36.9 45.2333C36.5014 45.6333 36.0069 45.8333 35.4166 45.8333H20.8333ZM15.625 33.3333C12.4652 33.3333 9.76593 32.2132 7.52704 29.9729C5.28676 27.734 4.16663 25.0347 4.16663 21.875C4.16663 18.9931 5.12149 16.4757 7.03121 14.3229C8.94093 12.1701 11.302 10.9028 14.1145 10.5208C15.2257 8.54166 16.7451 6.9875 18.6729 5.85833C20.5993 4.73055 22.7083 4.16666 25 4.16666C28.125 4.16666 30.8416 5.16528 33.15 7.1625C35.4597 9.15833 36.8576 11.6493 37.3437 14.6354C39.7395 14.8437 41.7534 15.8333 43.3854 17.6042C45.0173 19.375 45.8333 21.4931 45.8333 23.9583C45.8333 26.5625 44.9222 28.7764 43.1 30.6C41.2764 32.4222 39.0625 33.3333 36.4583 33.3333H15.625ZM15.625 29.1667H36.4583C37.9166 29.1667 39.1493 28.6632 40.1562 27.6562C41.1632 26.6493 41.6666 25.4167 41.6666 23.9583C41.6666 22.5 41.1632 21.2674 40.1562 20.2604C39.1493 19.2535 37.9166 18.75 36.4583 18.75H33.3333V16.6667C33.3333 14.375 32.5173 12.4132 30.8854 10.7812C29.2534 9.1493 27.2916 8.33333 25 8.33333C23.3333 8.33333 21.8139 8.78472 20.4416 9.6875C19.0708 10.5903 18.0382 11.8056 17.3437 13.3333L16.8229 14.5833H15.5208C13.5416 14.6528 11.8493 15.3903 10.4437 16.7958C9.03677 18.2028 8.33329 19.8958 8.33329 21.875C8.33329 23.8889 9.0451 25.6076 10.4687 27.0312C11.8923 28.4549 13.6111 29.1667 15.625 29.1667Z" fill="#6DFAA5"/>
</g>
</svg>
