<svg width="42" height="42" viewBox="0 0 42 42" fill="none" xmlns="http://www.w3.org/2000/svg">
<path d="M25.0625 41.625C24.5417 41.9028 24.0125 41.9458 23.475 41.7542C22.9361 41.5639 22.5278 41.2083 22.25 40.6875L19.125 34.4375C18.8472 33.9167 18.8042 33.3875 18.9958 32.85C19.1861 32.3111 19.5417 31.9028 20.0625 31.625C20.5833 31.3472 21.1125 31.3042 21.65 31.4958C22.1889 31.6861 22.5972 32.0417 22.875 32.5625L26 38.8125C26.2778 39.3333 26.3215 39.8625 26.1313 40.4C25.9396 40.9389 25.5833 41.3472 25.0625 41.625ZM37.5625 41.625C37.0417 41.9028 36.5125 41.9458 35.975 41.7542C35.4361 41.5639 35.0278 41.2083 34.75 40.6875L31.625 34.4375C31.3472 33.9167 31.3042 33.3875 31.4958 32.85C31.6861 32.3111 32.0417 31.9028 32.5625 31.625C33.0833 31.3472 33.6125 31.3042 34.15 31.4958C34.6889 31.6861 35.0972 32.0417 35.375 32.5625L38.5 38.8125C38.7778 39.3333 38.8215 39.8625 38.6312 40.4C38.4396 40.9389 38.0833 41.3472 37.5625 41.625ZM12.5625 41.625C12.0417 41.9028 11.5125 41.9458 10.975 41.7542C10.4361 41.5639 10.0278 41.2083 9.75 40.6875L6.625 34.4375C6.34722 33.9167 6.30416 33.3875 6.49583 32.85C6.68611 32.3111 7.04167 31.9028 7.5625 31.625C8.08333 31.3472 8.6125 31.3042 9.15 31.4958C9.68889 31.6861 10.0972 32.0417 10.375 32.5625L13.5 38.8125C13.7778 39.3333 13.8215 39.8625 13.6312 40.4C13.4396 40.9389 13.0833 41.3472 12.5625 41.625ZM11.625 29.3333C8.46528 29.3333 5.76597 28.2132 3.52708 25.9729C1.2868 23.734 0.166664 21.0347 0.166664 17.875C0.166664 14.9931 1.12153 12.4757 3.03125 10.3229C4.94097 8.17014 7.30208 6.90278 10.1146 6.52083C11.2257 4.54167 12.7451 2.9875 14.6729 1.85833C16.5993 0.730557 18.7083 0.166668 21 0.166668C24.125 0.166668 26.8417 1.16528 29.15 3.1625C31.4597 5.15833 32.8576 7.64931 33.3437 10.6354C35.7396 10.8438 37.7535 11.8333 39.3854 13.6042C41.0174 15.375 41.8333 17.4931 41.8333 19.9583C41.8333 22.5625 40.9222 24.7764 39.1 26.6C37.2764 28.4222 35.0625 29.3333 32.4583 29.3333H11.625ZM11.625 25.1667H32.4583C33.9167 25.1667 35.1493 24.6632 36.1562 23.6562C37.1632 22.6493 37.6667 21.4167 37.6667 19.9583C37.6667 18.5 37.1632 17.2674 36.1562 16.2604C35.1493 15.2535 33.9167 14.75 32.4583 14.75H29.3333V12.6667C29.3333 10.375 28.5174 8.4132 26.8854 6.78125C25.2535 5.14931 23.2917 4.33333 21 4.33333C19.3333 4.33333 17.8139 4.78472 16.4417 5.6875C15.0708 6.59028 14.0382 7.80556 13.3437 9.33333L12.8229 10.5833H11.5208C9.54166 10.6528 7.8493 11.3903 6.44375 12.7958C5.0368 14.2028 4.33333 15.8958 4.33333 17.875C4.33333 19.8889 5.04514 21.6076 6.46875 23.0313C7.89236 24.4549 9.61111 25.1667 11.625 25.1667Z" fill="#6DFAA5"/>
</svg>
