<svg width="100" height="100" viewBox="0 0 100 100" fill="none" xmlns="http://www.w3.org/2000/svg">
<mask id="mask0_7_30" style="mask-type:alpha" maskUnits="userSpaceOnUse" x="0" y="0" width="100" height="100">
<rect width="100" height="100" fill="#D9D9D9"/>
</mask>
<g mask="url(#mask0_7_30)">
<path d="M54.1667 45.8333V37.5H75V45.8333H54.1667ZM54.1667 29.1667V20.8333H87.5V29.1667H54.1667ZM33.3333 87.5C27.5694 87.5 22.6569 85.4694 18.5958 81.4083C14.5319 77.3444 12.5 72.4306 12.5 66.6667C12.5 63.3333 13.2292 60.225 14.6875 57.3417C16.1458 54.4611 18.1944 52.0139 20.8333 50V25C20.8333 21.5278 22.0486 18.5764 24.4792 16.1458C26.9097 13.7153 29.8611 12.5 33.3333 12.5C36.8056 12.5 39.7569 13.7153 42.1875 16.1458C44.6181 18.5764 45.8333 21.5278 45.8333 25V50C48.4722 52.0139 50.5208 54.4611 51.9792 57.3417C53.4375 60.225 54.1667 63.3333 54.1667 66.6667C54.1667 72.4306 52.1361 77.3444 48.075 81.4083C44.0111 85.4694 39.0972 87.5 33.3333 87.5ZM20.8333 66.6667H45.8333C45.8333 64.6528 45.4 62.7778 44.5333 61.0417C43.6639 59.3056 42.4306 57.8472 40.8333 56.6667L37.5 54.1667V25C37.5 23.8194 37.1014 22.8292 36.3042 22.0292C35.5042 21.2319 34.5139 20.8333 33.3333 20.8333C32.1528 20.8333 31.1625 21.2319 30.3625 22.0292C29.5653 22.8292 29.1667 23.8194 29.1667 25V54.1667L25.8333 56.6667C24.2361 57.8472 23.0028 59.3056 22.1333 61.0417C21.2667 62.7778 20.8333 64.6528 20.8333 66.6667Z" fill="#6DFAA5"/>
</g>
</svg>
