<svg width="50" height="50" viewBox="0 0 50 50" fill="none" xmlns="http://www.w3.org/2000/svg">
<mask id="mask0_35_103" style="mask-type:alpha" maskUnits="userSpaceOnUse" x="0" y="0" width="50" height="50">
<rect width="50" height="50" fill="#D9D9D9"/>
</mask>
<g mask="url(#mask0_35_103)">
<path d="M24.0625 50L28.9583 44.4271L24.7917 42.3438L30.8333 35.4167H36.3542L31.4583 40.9896L35.625 43.0729L29.5833 50H24.0625ZM11.5625 50L16.4583 44.4271L12.2917 42.3438L18.3333 35.4167H23.8542L18.9583 40.9896L23.125 43.0729L17.0833 50H11.5625ZM15.625 33.3333C12.4653 33.3333 9.76597 32.2132 7.52708 29.9729C5.28681 27.734 4.16667 25.0347 4.16667 21.875C4.16667 18.9931 5.12153 16.4757 7.03125 14.3229C8.94097 12.1701 11.3021 10.9028 14.1146 10.5208C15.2257 8.54167 16.7451 6.9875 18.6729 5.85833C20.5993 4.73056 22.7083 4.16667 25 4.16667C28.125 4.16667 30.8417 5.16528 33.15 7.1625C35.4597 9.15833 36.8576 11.6493 37.3438 14.6354C39.7396 14.8438 41.7535 15.8333 43.3854 17.6042C45.0174 19.375 45.8333 21.4931 45.8333 23.9583C45.8333 26.5625 44.9222 28.7764 43.1 30.6C41.2764 32.4222 39.0625 33.3333 36.4583 33.3333H15.625ZM15.625 29.1667H36.4583C37.9167 29.1667 39.1493 28.6632 40.1563 27.6562C41.1632 26.6493 41.6667 25.4167 41.6667 23.9583C41.6667 22.5 41.1632 21.2674 40.1563 20.2604C39.1493 19.2535 37.9167 18.75 36.4583 18.75H33.3333V16.6667C33.3333 14.375 32.5174 12.4132 30.8854 10.7813C29.2535 9.14931 27.2917 8.33333 25 8.33333C23.3333 8.33333 21.8139 8.78472 20.4417 9.6875C19.0708 10.5903 18.0382 11.8056 17.3438 13.3333L16.8229 14.5833H15.5208C13.5417 14.6528 11.8493 15.3903 10.4438 16.7958C9.03681 18.2028 8.33333 19.8958 8.33333 21.875C8.33333 23.8889 9.04514 25.6076 10.4688 27.0313C11.8924 28.4549 13.6111 29.1667 15.625 29.1667Z" fill="#6DFAA5"/>
</g>
</svg>
