<svg width="50" height="50" viewBox="0 0 50 50" fill="none" xmlns="http://www.w3.org/2000/svg">
<mask id="mask0_41_134" style="mask-type:alpha" maskUnits="userSpaceOnUse" x="0" y="0" width="50" height="50">
<rect width="50" height="50" fill="#D9D9D9"/>
</mask>
<g mask="url(#mask0_41_134)">
<path d="M22.9167 45.8333V37.1875L16.1459 43.8542L13.2292 40.9375L22.9167 31.25V27.0833H18.75L9.06252 36.7708L6.14585 33.8542L12.8125 27.0833H4.16669V22.9167H12.8125L6.14585 16.1458L9.06252 13.2292L18.75 22.9167H22.9167V18.75L13.2292 9.0625L16.1459 6.14583L22.9167 12.8125V4.16666H27.0834V12.8125L33.8542 6.14583L36.7709 9.0625L27.0834 18.75V22.9167H31.25L40.9375 13.2292L43.8542 16.1458L37.1875 22.9167H45.8334V27.0833H37.1875L43.8542 33.8542L40.9375 36.7708L31.25 27.0833H27.0834V31.25L36.7709 40.9375L33.8542 43.8542L27.0834 37.1875V45.8333H22.9167Z" fill="#6DFAA5"/>
</g>
</svg>
